<?xml version="1.0" encoding="iso-8859-1"?>
<!-- Generator: Adobe Illustrator 24.1.2, SVG Export Plug-In . SVG Version: 6.00 Build 0)  -->
<svg version="1.1" baseProfile="basic" id="Layer_1"
	 xmlns="http://www.w3.org/2000/svg" xmlns:xlink="http://www.w3.org/1999/xlink" x="0px" y="0px" viewBox="0 0 72 72"
	 xml:space="preserve">
<path d="M36,24c6.617,0,12,5.383,12,12s-5.383,12-12,12s-12-5.383-12-12S29.383,24,36,24z M40.815,42.819l-0.92-5.362l3.896-3.797
	l-5.383-0.782L36,28l-2.408,4.878l-5.383,0.782l3.896,3.797l-0.92,5.362L36,40.288L40.815,42.819z"/>
<path d="M36,10c14.337,0,26,11.664,26,26S50.337,62,36,62S10,50.336,10,36S21.663,10,36,10z M36,52c8.822,0,16-7.178,16-16
	s-7.178-16-16-16s-16,7.178-16,16S27.178,52,36,52z"/>
</svg>